<mxfile host="app.diagrams.net" agent="Mozilla/5.0 (Windows NT 10.0; Win64; x64) AppleWebKit/537.36 (KHTML, like Gecko) Chrome/129.0.0.0 Safari/537.36" version="24.8.1">
  <diagram name="第 1 页" id="zeKcZau5pKRTVoowgY7-">
    <mxGraphModel dx="2261" dy="746" grid="1" gridSize="10" guides="1" tooltips="1" connect="1" arrows="1" fold="1" page="1" pageScale="1" pageWidth="827" pageHeight="1169" math="0" shadow="0">
      <root>
        <mxCell id="0" />
        <mxCell id="1" parent="0" />
        <mxCell id="eUMBlk43XlR1DarDWTKL-1" value="Start" style="rounded=1;whiteSpace=wrap;html=1;" vertex="1" parent="1">
          <mxGeometry x="330" y="40" width="120" height="60" as="geometry" />
        </mxCell>
        <mxCell id="eUMBlk43XlR1DarDWTKL-3" value="Show UI and load language setting" style="rounded=0;whiteSpace=wrap;html=1;" vertex="1" parent="1">
          <mxGeometry x="330" y="170" width="120" height="60" as="geometry" />
        </mxCell>
        <mxCell id="eUMBlk43XlR1DarDWTKL-4" value="" style="endArrow=classic;html=1;rounded=0;entryX=0.5;entryY=0;entryDx=0;entryDy=0;" edge="1" parent="1" target="eUMBlk43XlR1DarDWTKL-3">
          <mxGeometry width="50" height="50" relative="1" as="geometry">
            <mxPoint x="390" y="100" as="sourcePoint" />
            <mxPoint x="389.5" y="160" as="targetPoint" />
          </mxGeometry>
        </mxCell>
        <mxCell id="eUMBlk43XlR1DarDWTKL-5" value="" style="endArrow=none;html=1;rounded=0;" edge="1" parent="1">
          <mxGeometry width="50" height="50" relative="1" as="geometry">
            <mxPoint x="389.5" y="320" as="sourcePoint" />
            <mxPoint x="389.5" y="230" as="targetPoint" />
          </mxGeometry>
        </mxCell>
        <mxCell id="eUMBlk43XlR1DarDWTKL-6" value="" style="endArrow=none;html=1;rounded=0;" edge="1" parent="1">
          <mxGeometry width="50" height="50" relative="1" as="geometry">
            <mxPoint x="120" y="320" as="sourcePoint" />
            <mxPoint x="790" y="320" as="targetPoint" />
          </mxGeometry>
        </mxCell>
        <mxCell id="eUMBlk43XlR1DarDWTKL-7" value="" style="endArrow=classic;html=1;rounded=0;entryX=0.5;entryY=0;entryDx=0;entryDy=0;" edge="1" parent="1">
          <mxGeometry width="50" height="50" relative="1" as="geometry">
            <mxPoint x="120" y="320" as="sourcePoint" />
            <mxPoint x="120" y="390" as="targetPoint" />
          </mxGeometry>
        </mxCell>
        <mxCell id="eUMBlk43XlR1DarDWTKL-8" value="" style="endArrow=classic;html=1;rounded=0;entryX=0.5;entryY=0;entryDx=0;entryDy=0;" edge="1" parent="1">
          <mxGeometry width="50" height="50" relative="1" as="geometry">
            <mxPoint x="389.5" y="320" as="sourcePoint" />
            <mxPoint x="389.5" y="390" as="targetPoint" />
          </mxGeometry>
        </mxCell>
        <mxCell id="eUMBlk43XlR1DarDWTKL-9" value="" style="endArrow=classic;html=1;rounded=0;entryX=0.5;entryY=0;entryDx=0;entryDy=0;" edge="1" parent="1">
          <mxGeometry width="50" height="50" relative="1" as="geometry">
            <mxPoint x="580" y="320" as="sourcePoint" />
            <mxPoint x="580" y="390" as="targetPoint" />
          </mxGeometry>
        </mxCell>
        <mxCell id="eUMBlk43XlR1DarDWTKL-10" value="Clock In" style="rounded=0;whiteSpace=wrap;html=1;" vertex="1" parent="1">
          <mxGeometry x="60" y="390" width="120" height="60" as="geometry" />
        </mxCell>
        <mxCell id="eUMBlk43XlR1DarDWTKL-12" value="Select Language" style="rounded=0;whiteSpace=wrap;html=1;" vertex="1" parent="1">
          <mxGeometry x="520" y="390" width="120" height="60" as="geometry" />
        </mxCell>
        <mxCell id="eUMBlk43XlR1DarDWTKL-13" value="Correct Time" style="rounded=0;whiteSpace=wrap;html=1;" vertex="1" parent="1">
          <mxGeometry x="330" y="390" width="120" height="60" as="geometry" />
        </mxCell>
        <mxCell id="eUMBlk43XlR1DarDWTKL-23" value="" style="edgeStyle=orthogonalEdgeStyle;rounded=0;orthogonalLoop=1;jettySize=auto;html=1;" edge="1" parent="1" source="eUMBlk43XlR1DarDWTKL-15" target="eUMBlk43XlR1DarDWTKL-18">
          <mxGeometry relative="1" as="geometry" />
        </mxCell>
        <mxCell id="eUMBlk43XlR1DarDWTKL-15" value="&lt;div&gt;Use timer to&lt;/div&gt;check time&amp;nbsp;&lt;div&gt;every second&lt;/div&gt;" style="rounded=0;whiteSpace=wrap;html=1;" vertex="1" parent="1">
          <mxGeometry x="60" y="520" width="120" height="60" as="geometry" />
        </mxCell>
        <mxCell id="eUMBlk43XlR1DarDWTKL-16" value="" style="endArrow=classic;html=1;rounded=0;entryX=0.5;entryY=0;entryDx=0;entryDy=0;" edge="1" parent="1">
          <mxGeometry width="50" height="50" relative="1" as="geometry">
            <mxPoint x="119.5" y="450" as="sourcePoint" />
            <mxPoint x="119.5" y="520" as="targetPoint" />
          </mxGeometry>
        </mxCell>
        <mxCell id="eUMBlk43XlR1DarDWTKL-17" value="" style="endArrow=classic;html=1;rounded=0;entryX=0.5;entryY=0;entryDx=0;entryDy=0;" edge="1" parent="1">
          <mxGeometry width="50" height="50" relative="1" as="geometry">
            <mxPoint x="119.5" y="580" as="sourcePoint" />
            <mxPoint x="119.5" y="650" as="targetPoint" />
          </mxGeometry>
        </mxCell>
        <mxCell id="eUMBlk43XlR1DarDWTKL-18" value="Is clock&amp;nbsp;&lt;div&gt;out time?&lt;/div&gt;" style="rhombus;whiteSpace=wrap;html=1;" vertex="1" parent="1">
          <mxGeometry x="80" y="650" width="80" height="80" as="geometry" />
        </mxCell>
        <mxCell id="eUMBlk43XlR1DarDWTKL-19" value="" style="endArrow=classic;html=1;rounded=0;entryX=-0.017;entryY=0.65;entryDx=0;entryDy=0;entryPerimeter=0;" edge="1" parent="1" target="eUMBlk43XlR1DarDWTKL-15">
          <mxGeometry width="50" height="50" relative="1" as="geometry">
            <mxPoint x="80" y="689.5" as="sourcePoint" />
            <mxPoint x="-20" y="550" as="targetPoint" />
            <Array as="points">
              <mxPoint x="-20" y="690" />
              <mxPoint x="-20" y="560" />
            </Array>
          </mxGeometry>
        </mxCell>
        <mxCell id="eUMBlk43XlR1DarDWTKL-21" value="No&#xa;" style="edgeLabel;align=center;verticalAlign=middle;resizable=0;points=[];imageHeight=15;imageWidth=40;absoluteArcSize=0;imageAspect=1;fontSize=20;recursiveResize=1;expand=1;allowArrows=1;noLabel=0;horizontal=1;" vertex="1" connectable="0" parent="eUMBlk43XlR1DarDWTKL-19">
          <mxGeometry x="-0.0286" y="4" relative="1" as="geometry">
            <mxPoint x="54" y="40" as="offset" />
          </mxGeometry>
        </mxCell>
        <mxCell id="eUMBlk43XlR1DarDWTKL-24" value="" style="endArrow=classic;html=1;rounded=0;entryX=0.5;entryY=0;entryDx=0;entryDy=0;" edge="1" parent="1">
          <mxGeometry width="50" height="50" relative="1" as="geometry">
            <mxPoint x="119.5" y="730" as="sourcePoint" />
            <mxPoint x="119.5" y="800" as="targetPoint" />
          </mxGeometry>
        </mxCell>
        <mxCell id="eUMBlk43XlR1DarDWTKL-25" value="Yes" style="edgeLabel;html=1;align=center;verticalAlign=middle;resizable=0;points=[];fontSize=20;" vertex="1" connectable="0" parent="eUMBlk43XlR1DarDWTKL-24">
          <mxGeometry x="-0.1714" relative="1" as="geometry">
            <mxPoint x="-29" as="offset" />
          </mxGeometry>
        </mxCell>
        <mxCell id="eUMBlk43XlR1DarDWTKL-26" value="&lt;div&gt;Stop timer&lt;/div&gt;" style="rounded=0;whiteSpace=wrap;html=1;" vertex="1" parent="1">
          <mxGeometry x="60" y="800" width="120" height="60" as="geometry" />
        </mxCell>
        <mxCell id="eUMBlk43XlR1DarDWTKL-27" value="" style="endArrow=classic;html=1;rounded=0;entryX=0.5;entryY=0;entryDx=0;entryDy=0;" edge="1" parent="1">
          <mxGeometry width="50" height="50" relative="1" as="geometry">
            <mxPoint x="119.5" y="860" as="sourcePoint" />
            <mxPoint x="119.5" y="930" as="targetPoint" />
          </mxGeometry>
        </mxCell>
        <mxCell id="eUMBlk43XlR1DarDWTKL-29" value="Send Windows notification" style="rounded=0;whiteSpace=wrap;html=1;" vertex="1" parent="1">
          <mxGeometry x="60" y="930" width="120" height="60" as="geometry" />
        </mxCell>
        <mxCell id="eUMBlk43XlR1DarDWTKL-30" value="" style="endArrow=classic;html=1;rounded=0;entryX=0.5;entryY=0;entryDx=0;entryDy=0;" edge="1" parent="1">
          <mxGeometry width="50" height="50" relative="1" as="geometry">
            <mxPoint x="119.5" y="990" as="sourcePoint" />
            <mxPoint x="119.5" y="1060" as="targetPoint" />
          </mxGeometry>
        </mxCell>
        <mxCell id="eUMBlk43XlR1DarDWTKL-32" value="Open url" style="rounded=0;whiteSpace=wrap;html=1;" vertex="1" parent="1">
          <mxGeometry x="60" y="1060" width="120" height="60" as="geometry" />
        </mxCell>
        <mxCell id="eUMBlk43XlR1DarDWTKL-33" value="" style="endArrow=classic;html=1;rounded=0;entryX=0.5;entryY=0;entryDx=0;entryDy=0;" edge="1" parent="1">
          <mxGeometry width="50" height="50" relative="1" as="geometry">
            <mxPoint x="119.5" y="1120" as="sourcePoint" />
            <mxPoint x="119.5" y="1190" as="targetPoint" />
          </mxGeometry>
        </mxCell>
        <mxCell id="eUMBlk43XlR1DarDWTKL-35" value="Make the app flash in the taskbar if it is not active." style="rounded=0;whiteSpace=wrap;html=1;" vertex="1" parent="1">
          <mxGeometry x="60" y="1190" width="120" height="60" as="geometry" />
        </mxCell>
        <mxCell id="eUMBlk43XlR1DarDWTKL-37" value="" style="endArrow=classic;html=1;rounded=0;entryX=0.5;entryY=0;entryDx=0;entryDy=0;" edge="1" parent="1">
          <mxGeometry width="50" height="50" relative="1" as="geometry">
            <mxPoint x="119.5" y="1250" as="sourcePoint" />
            <mxPoint x="119.5" y="1320" as="targetPoint" />
          </mxGeometry>
        </mxCell>
        <mxCell id="eUMBlk43XlR1DarDWTKL-38" value="Show message box" style="rounded=0;whiteSpace=wrap;html=1;" vertex="1" parent="1">
          <mxGeometry x="60" y="1320" width="120" height="60" as="geometry" />
        </mxCell>
        <mxCell id="eUMBlk43XlR1DarDWTKL-39" value="" style="endArrow=classic;html=1;rounded=0;entryX=0.5;entryY=0;entryDx=0;entryDy=0;" edge="1" parent="1">
          <mxGeometry width="50" height="50" relative="1" as="geometry">
            <mxPoint x="120" y="1380" as="sourcePoint" />
            <mxPoint x="120" y="1450" as="targetPoint" />
          </mxGeometry>
        </mxCell>
        <mxCell id="eUMBlk43XlR1DarDWTKL-40" value="Click" style="rounded=0;whiteSpace=wrap;html=1;" vertex="1" parent="1">
          <mxGeometry x="60" y="1450" width="120" height="60" as="geometry" />
        </mxCell>
        <mxCell id="eUMBlk43XlR1DarDWTKL-41" value="" style="endArrow=classic;html=1;rounded=0;entryX=0.5;entryY=0;entryDx=0;entryDy=0;" edge="1" parent="1">
          <mxGeometry width="50" height="50" relative="1" as="geometry">
            <mxPoint x="119.5" y="1510" as="sourcePoint" />
            <mxPoint x="119.5" y="1580" as="targetPoint" />
          </mxGeometry>
        </mxCell>
        <mxCell id="eUMBlk43XlR1DarDWTKL-42" value="End" style="rounded=1;whiteSpace=wrap;html=1;" vertex="1" parent="1">
          <mxGeometry x="60" y="1580" width="120" height="60" as="geometry" />
        </mxCell>
        <mxCell id="eUMBlk43XlR1DarDWTKL-43" value="" style="endArrow=classic;html=1;rounded=0;entryX=0.5;entryY=0;entryDx=0;entryDy=0;" edge="1" parent="1">
          <mxGeometry width="50" height="50" relative="1" as="geometry">
            <mxPoint x="389.5" y="450" as="sourcePoint" />
            <mxPoint x="389.5" y="520" as="targetPoint" />
          </mxGeometry>
        </mxCell>
        <mxCell id="eUMBlk43XlR1DarDWTKL-44" value="Is clock in?" style="rhombus;whiteSpace=wrap;html=1;" vertex="1" parent="1">
          <mxGeometry x="350" y="520" width="80" height="80" as="geometry" />
        </mxCell>
        <mxCell id="eUMBlk43XlR1DarDWTKL-45" value="" style="endArrow=classic;html=1;rounded=0;exitX=0;exitY=0.5;exitDx=0;exitDy=0;" edge="1" parent="1" source="eUMBlk43XlR1DarDWTKL-44">
          <mxGeometry width="50" height="50" relative="1" as="geometry">
            <mxPoint x="310" y="560" as="sourcePoint" />
            <mxPoint x="260" y="640" as="targetPoint" />
            <Array as="points">
              <mxPoint x="260" y="560" />
            </Array>
          </mxGeometry>
        </mxCell>
        <mxCell id="eUMBlk43XlR1DarDWTKL-47" value="No" style="edgeLabel;html=1;align=center;verticalAlign=middle;resizable=0;points=[];fontSize=20;" vertex="1" connectable="0" parent="eUMBlk43XlR1DarDWTKL-45">
          <mxGeometry x="-0.0333" relative="1" as="geometry">
            <mxPoint x="20" y="12" as="offset" />
          </mxGeometry>
        </mxCell>
        <mxCell id="eUMBlk43XlR1DarDWTKL-48" value="&lt;div&gt;Show error message&lt;/div&gt;" style="rounded=0;whiteSpace=wrap;html=1;" vertex="1" parent="1">
          <mxGeometry x="200" y="640" width="120" height="60" as="geometry" />
        </mxCell>
        <mxCell id="eUMBlk43XlR1DarDWTKL-52" value="" style="endArrow=classic;html=1;rounded=0;" edge="1" parent="1">
          <mxGeometry width="50" height="50" relative="1" as="geometry">
            <mxPoint x="389.5" y="810" as="sourcePoint" />
            <mxPoint x="390" y="940" as="targetPoint" />
          </mxGeometry>
        </mxCell>
        <mxCell id="eUMBlk43XlR1DarDWTKL-53" value="Yes" style="edgeLabel;html=1;align=center;verticalAlign=middle;resizable=0;points=[];fontSize=20;" vertex="1" connectable="0" parent="eUMBlk43XlR1DarDWTKL-52">
          <mxGeometry x="-0.1714" relative="1" as="geometry">
            <mxPoint x="-29" as="offset" />
          </mxGeometry>
        </mxCell>
        <mxCell id="eUMBlk43XlR1DarDWTKL-54" value="Is format success?" style="rhombus;whiteSpace=wrap;html=1;" vertex="1" parent="1">
          <mxGeometry x="350" y="730" width="80" height="80" as="geometry" />
        </mxCell>
        <mxCell id="eUMBlk43XlR1DarDWTKL-55" value="" style="endArrow=classic;html=1;rounded=0;exitX=0;exitY=0.5;exitDx=0;exitDy=0;" edge="1" parent="1">
          <mxGeometry width="50" height="50" relative="1" as="geometry">
            <mxPoint x="350" y="770" as="sourcePoint" />
            <mxPoint x="260" y="850" as="targetPoint" />
            <Array as="points">
              <mxPoint x="260" y="770" />
            </Array>
          </mxGeometry>
        </mxCell>
        <mxCell id="eUMBlk43XlR1DarDWTKL-56" value="No" style="edgeLabel;html=1;align=center;verticalAlign=middle;resizable=0;points=[];fontSize=20;" vertex="1" connectable="0" parent="eUMBlk43XlR1DarDWTKL-55">
          <mxGeometry x="-0.0333" relative="1" as="geometry">
            <mxPoint x="20" y="12" as="offset" />
          </mxGeometry>
        </mxCell>
        <mxCell id="eUMBlk43XlR1DarDWTKL-57" value="&lt;div&gt;Show error message&lt;/div&gt;" style="rounded=0;whiteSpace=wrap;html=1;" vertex="1" parent="1">
          <mxGeometry x="200" y="850" width="120" height="60" as="geometry" />
        </mxCell>
        <mxCell id="eUMBlk43XlR1DarDWTKL-59" value="" style="endArrow=classic;html=1;rounded=0;" edge="1" parent="1">
          <mxGeometry width="50" height="50" relative="1" as="geometry">
            <mxPoint x="389.5" y="600" as="sourcePoint" />
            <mxPoint x="390" y="730" as="targetPoint" />
          </mxGeometry>
        </mxCell>
        <mxCell id="eUMBlk43XlR1DarDWTKL-60" value="Yes" style="edgeLabel;html=1;align=center;verticalAlign=middle;resizable=0;points=[];fontSize=20;" vertex="1" connectable="0" parent="eUMBlk43XlR1DarDWTKL-59">
          <mxGeometry x="-0.1714" relative="1" as="geometry">
            <mxPoint x="-29" as="offset" />
          </mxGeometry>
        </mxCell>
        <mxCell id="eUMBlk43XlR1DarDWTKL-61" value="&lt;div&gt;Correct clock out time&lt;/div&gt;" style="rounded=0;whiteSpace=wrap;html=1;" vertex="1" parent="1">
          <mxGeometry x="330" y="940" width="120" height="60" as="geometry" />
        </mxCell>
        <mxCell id="eUMBlk43XlR1DarDWTKL-62" value="Is change language?" style="rhombus;whiteSpace=wrap;html=1;" vertex="1" parent="1">
          <mxGeometry x="540" y="520" width="80" height="80" as="geometry" />
        </mxCell>
        <mxCell id="eUMBlk43XlR1DarDWTKL-63" value="" style="endArrow=classic;html=1;rounded=0;entryX=0.5;entryY=0;entryDx=0;entryDy=0;" edge="1" parent="1">
          <mxGeometry width="50" height="50" relative="1" as="geometry">
            <mxPoint x="579.5" y="450" as="sourcePoint" />
            <mxPoint x="579.5" y="520" as="targetPoint" />
          </mxGeometry>
        </mxCell>
        <mxCell id="eUMBlk43XlR1DarDWTKL-64" value="" style="endArrow=classic;html=1;rounded=0;" edge="1" parent="1">
          <mxGeometry width="50" height="50" relative="1" as="geometry">
            <mxPoint x="579.5" y="600" as="sourcePoint" />
            <mxPoint x="580" y="730" as="targetPoint" />
          </mxGeometry>
        </mxCell>
        <mxCell id="eUMBlk43XlR1DarDWTKL-65" value="Yes" style="edgeLabel;html=1;align=center;verticalAlign=middle;resizable=0;points=[];fontSize=20;" vertex="1" connectable="0" parent="eUMBlk43XlR1DarDWTKL-64">
          <mxGeometry x="-0.1714" relative="1" as="geometry">
            <mxPoint x="-29" as="offset" />
          </mxGeometry>
        </mxCell>
        <mxCell id="eUMBlk43XlR1DarDWTKL-66" value="&lt;div&gt;Change language&lt;/div&gt;" style="rounded=0;whiteSpace=wrap;html=1;" vertex="1" parent="1">
          <mxGeometry x="520" y="730" width="120" height="60" as="geometry" />
        </mxCell>
        <mxCell id="eUMBlk43XlR1DarDWTKL-67" value="" style="endArrow=classic;html=1;rounded=0;entryX=0.5;entryY=0;entryDx=0;entryDy=0;" edge="1" parent="1">
          <mxGeometry width="50" height="50" relative="1" as="geometry">
            <mxPoint x="579.5" y="790" as="sourcePoint" />
            <mxPoint x="579.5" y="860" as="targetPoint" />
          </mxGeometry>
        </mxCell>
        <mxCell id="eUMBlk43XlR1DarDWTKL-69" value="&lt;div&gt;Save language setting&lt;/div&gt;" style="rounded=0;whiteSpace=wrap;html=1;" vertex="1" parent="1">
          <mxGeometry x="520" y="860" width="120" height="60" as="geometry" />
        </mxCell>
        <mxCell id="eUMBlk43XlR1DarDWTKL-70" value="" style="endArrow=classic;html=1;rounded=0;entryX=0.5;entryY=0;entryDx=0;entryDy=0;" edge="1" parent="1">
          <mxGeometry width="50" height="50" relative="1" as="geometry">
            <mxPoint x="790" y="320" as="sourcePoint" />
            <mxPoint x="790" y="390" as="targetPoint" />
          </mxGeometry>
        </mxCell>
        <mxCell id="eUMBlk43XlR1DarDWTKL-71" value="Close" style="rounded=0;whiteSpace=wrap;html=1;" vertex="1" parent="1">
          <mxGeometry x="730" y="390" width="120" height="60" as="geometry" />
        </mxCell>
        <mxCell id="eUMBlk43XlR1DarDWTKL-72" value="Is click?" style="rhombus;whiteSpace=wrap;html=1;" vertex="1" parent="1">
          <mxGeometry x="750" y="520" width="80" height="80" as="geometry" />
        </mxCell>
        <mxCell id="eUMBlk43XlR1DarDWTKL-73" value="" style="endArrow=classic;html=1;rounded=0;entryX=0.5;entryY=0;entryDx=0;entryDy=0;" edge="1" parent="1">
          <mxGeometry width="50" height="50" relative="1" as="geometry">
            <mxPoint x="789.5" y="450" as="sourcePoint" />
            <mxPoint x="789.5" y="520" as="targetPoint" />
          </mxGeometry>
        </mxCell>
        <mxCell id="eUMBlk43XlR1DarDWTKL-74" value="" style="endArrow=classic;html=1;rounded=0;" edge="1" parent="1">
          <mxGeometry width="50" height="50" relative="1" as="geometry">
            <mxPoint x="789.5" y="600" as="sourcePoint" />
            <mxPoint x="790" y="730" as="targetPoint" />
          </mxGeometry>
        </mxCell>
        <mxCell id="eUMBlk43XlR1DarDWTKL-75" value="Yes" style="edgeLabel;html=1;align=center;verticalAlign=middle;resizable=0;points=[];fontSize=20;" vertex="1" connectable="0" parent="eUMBlk43XlR1DarDWTKL-74">
          <mxGeometry x="-0.1714" relative="1" as="geometry">
            <mxPoint x="-29" as="offset" />
          </mxGeometry>
        </mxCell>
        <mxCell id="eUMBlk43XlR1DarDWTKL-76" value="&lt;div&gt;Show close&amp;nbsp;&lt;/div&gt;&lt;div&gt;message box&lt;/div&gt;" style="rounded=0;whiteSpace=wrap;html=1;" vertex="1" parent="1">
          <mxGeometry x="730" y="730" width="120" height="60" as="geometry" />
        </mxCell>
        <mxCell id="eUMBlk43XlR1DarDWTKL-78" value="" style="endArrow=none;html=1;rounded=0;" edge="1" parent="1">
          <mxGeometry width="50" height="50" relative="1" as="geometry">
            <mxPoint x="789.5" y="860" as="sourcePoint" />
            <mxPoint x="789.5" y="790" as="targetPoint" />
          </mxGeometry>
        </mxCell>
        <mxCell id="eUMBlk43XlR1DarDWTKL-80" value="" style="endArrow=classic;html=1;rounded=0;" edge="1" parent="1">
          <mxGeometry width="50" height="50" relative="1" as="geometry">
            <mxPoint x="790" y="860" as="sourcePoint" />
            <mxPoint x="710" y="930" as="targetPoint" />
            <Array as="points">
              <mxPoint x="710" y="860" />
            </Array>
          </mxGeometry>
        </mxCell>
        <mxCell id="eUMBlk43XlR1DarDWTKL-81" value="&lt;div&gt;Close&lt;/div&gt;" style="rounded=0;whiteSpace=wrap;html=1;" vertex="1" parent="1">
          <mxGeometry x="650" y="930" width="120" height="60" as="geometry" />
        </mxCell>
        <mxCell id="eUMBlk43XlR1DarDWTKL-82" value="" style="endArrow=classic;html=1;rounded=0;entryX=0.5;entryY=0;entryDx=0;entryDy=0;" edge="1" parent="1">
          <mxGeometry width="50" height="50" relative="1" as="geometry">
            <mxPoint x="709.5" y="990" as="sourcePoint" />
            <mxPoint x="709.5" y="1060" as="targetPoint" />
          </mxGeometry>
        </mxCell>
        <mxCell id="eUMBlk43XlR1DarDWTKL-83" value="End" style="rounded=1;whiteSpace=wrap;html=1;" vertex="1" parent="1">
          <mxGeometry x="650" y="1060" width="120" height="60" as="geometry" />
        </mxCell>
        <mxCell id="eUMBlk43XlR1DarDWTKL-84" value="" style="endArrow=classic;html=1;rounded=0;" edge="1" parent="1">
          <mxGeometry width="50" height="50" relative="1" as="geometry">
            <mxPoint x="790" y="860" as="sourcePoint" />
            <mxPoint x="880" y="930" as="targetPoint" />
            <Array as="points">
              <mxPoint x="880" y="860" />
            </Array>
          </mxGeometry>
        </mxCell>
        <mxCell id="eUMBlk43XlR1DarDWTKL-85" value="&lt;div&gt;Cancel&lt;/div&gt;" style="rounded=0;whiteSpace=wrap;html=1;" vertex="1" parent="1">
          <mxGeometry x="820" y="930" width="120" height="60" as="geometry" />
        </mxCell>
        <mxCell id="eUMBlk43XlR1DarDWTKL-86" value="" style="endArrow=classic;html=1;rounded=0;entryX=0.5;entryY=0;entryDx=0;entryDy=0;" edge="1" parent="1">
          <mxGeometry width="50" height="50" relative="1" as="geometry">
            <mxPoint x="879.5" y="990" as="sourcePoint" />
            <mxPoint x="879.5" y="1060" as="targetPoint" />
          </mxGeometry>
        </mxCell>
        <mxCell id="eUMBlk43XlR1DarDWTKL-87" value="&lt;div&gt;Close message box&lt;/div&gt;" style="rounded=0;whiteSpace=wrap;html=1;" vertex="1" parent="1">
          <mxGeometry x="820" y="1060" width="120" height="60" as="geometry" />
        </mxCell>
      </root>
    </mxGraphModel>
  </diagram>
</mxfile>
